# xmcd CD database file
#
# Track frame offsets:
#	150
#	43709
#	73286
#	96172
#	119165
#	149190
#	162545
#
# Disc length: 2599 seconds
#
# Revision: 0
# Processed by: cddbd v1.5.2PL0 Copyright (c) Steve Scherf et al.
# Submitted via: CDex 1.70beta2
#
DISCID=760a2507
DTITLE=Braxton, Anthony - Birth and Rebirth
DYEAR=1976
DGENRE=Jazz
TTITLE0=Birth
TTITLE1=Magic and Music
TTITLE2=Tropival Forest
TTITLE3=Dance Griot
TTITLE4=Spirit Possession
TTITLE5=Soft Shoe
TTITLE6=Rebirth
EXTD=YEAR: 1976
EXTT0=
EXTT1=
EXTT2=
EXTT3=
EXTT4=
EXTT5=
EXTT6=
PLAYORDER=
